# xmcd CD database file
#
# Track frame offsets:
#	150
#	41537
#	57162
#	100430
#	143845
#	175115
#	197862
#	230575
#	252037
#
# Disc length: 3804 seconds
#
# Revision: 6
# Processed by: cddbd v1.5.2PL0 Copyright (c) Steve Scherf et al.
# Submitted via: CDex 1.51
#
DISCID=790eda09
DTITLE=Wes Montgomery - Full House
DYEAR=1962
DGENRE=Jazz
TTITLE0=Full House
TTITLE1=I've Grown Accustomed to Her Face
TTITLE2=Blue 'N' Boogie
TTITLE3=Cariba
TTITLE4=Come Rain or Come Shine (take 2)
TTITLE5=S.O.S. (take 3)
TTITLE6=Come Rain or Come Shine (take 1)
TTITLE7=S.O.S. (take 2)
TTITLE8=Born to be Blue
EXTD=Wes Montgomery (g]\nJohnny Griffin (ts]\nWynton Kelly (p]\nPaul Chambers (b]\nJimmy Cobb (ds]\nLive at the "Tsubo", Berkeley, Ca., June 25, 1962 YEAR: 1962
EXTT0=
EXTT1=
EXTT2=
EXTT3=
EXTT4=
EXTT5=
EXTT6=
EXTT7=
EXTT8=
PLAYORDER=
